<svg width="24" height="24" viewBox="0 0 24 24" fill="none" xmlns="http://www.w3.org/2000/svg">
<path fill-rule="evenodd" clip-rule="evenodd" d="M9.96654 1.84961C9.50385 1.84961 9.10581 2.01155 8.7934 2.33182C8.35607 2.78076 8.20444 3.44294 8.15108 3.88351H4.20383C3.93396 3.88351 3.71484 4.10209 3.71484 4.37249C3.71484 4.64289 3.93396 4.86147 4.20383 4.86147H4.7518L5.39491 20.3166C5.40198 20.6319 5.50248 21.0845 5.77711 21.4627C6.05732 21.8487 6.51432 22.1496 7.20857 22.1496H16.7923C17.4865 22.1496 17.9435 21.8487 18.2236 21.4638C18.4982 21.0865 18.5987 20.6357 18.6056 20.3237L19.2491 4.86147H19.797C20.0669 4.86147 20.286 4.64289 20.286 4.37249C20.286 4.10209 20.0669 3.88351 19.797 3.88351H15.1715C15.1181 3.44294 14.9665 2.78076 14.5292 2.33182C14.2168 2.01155 13.8187 1.84961 13.356 1.84961H9.96654ZM9.49479 3.01331C9.61565 2.88975 9.7651 2.82758 9.96654 2.82758H13.356C13.5575 2.82758 13.7069 2.88975 13.8278 3.01331C13.9419 3.12997 14.0282 3.29843 14.0907 3.4891C14.1335 3.61965 14.1636 3.75566 14.1841 3.88351H9.13883C9.15932 3.75565 9.18935 3.61964 9.23213 3.48907C9.2946 3.29842 9.38085 3.12997 9.49479 3.01331ZM6.37239 20.2854L5.73037 4.86147H18.2702L17.6282 20.2913L17.6281 20.2947C17.6272 20.3386 17.6159 20.5666 17.5033 20.7785C17.4481 20.8824 17.3703 20.9792 17.26 21.0503C17.1506 21.1209 17.0008 21.1716 16.7923 21.1716H7.20857C7.00298 21.1716 6.85469 21.121 6.74573 21.0502C6.63586 20.9789 6.55765 20.8816 6.50172 20.7767C6.38776 20.5632 6.374 20.333 6.37239 20.2854ZM8.61061 7.27334C8.34074 7.27334 8.12162 7.49192 8.12162 7.76232V18.9488C8.12162 19.2192 8.34074 19.4377 8.61061 19.4377C8.88047 19.4377 9.09959 19.2192 9.09959 18.9488V7.76232C9.09959 7.49192 8.88047 7.27334 8.61061 7.27334ZM12.0004 7.27334C11.7306 7.27334 11.5115 7.49192 11.5115 7.76232V18.9488C11.5115 19.2192 11.7306 19.4377 12.0004 19.4377C12.2703 19.4377 12.4894 19.2192 12.4894 18.9488V7.76232C12.4894 7.49192 12.2703 7.27334 12.0004 7.27334ZM15.3903 7.27334C15.1204 7.27334 14.9013 7.49192 14.9013 7.76232V18.9488C14.9013 19.2192 15.1204 19.4377 15.3903 19.4377C15.6601 19.4377 15.8793 19.2192 15.8793 18.9488V7.76232C15.8793 7.49192 15.6601 7.27334 15.3903 7.27334Z" fill="#00539F"/>
</svg>
