<svg width="22" height="24" viewBox="0 0 22 24" fill="none" xmlns="http://www.w3.org/2000/svg">
<path fill-rule="evenodd" clip-rule="evenodd" d="M11.4997 2.4636V13H10.4997V2.4636L4.91934 7.53662L4.24667 6.79668L10.6633 0.963352L10.9997 0.657593L11.336 0.963352L17.7527 6.79668L17.08 7.53662L11.4997 2.4636ZM1.58301 23V13.5L2.20977 13.5L4.20935 13.5C4.4759 16.7283 7.28605 19.8 10.9985 19.8C14.7109 19.8 17.5211 16.7284 17.7876 13.5L19.7872 13.5L20.414 13.5V23H1.58301ZM20.914 12.5L20.914 13L20.9139 12.5H20.9139H20.9136H20.9126H20.9087H20.8933H20.833L20.6041 12.5L19.7872 12.5L17.3083 12.5L16.8083 12.5V13C16.8083 15.8963 14.306 18.8 10.9985 18.8C7.69099 18.8 5.18863 15.8963 5.18863 13V12.5L4.68864 12.5L2.20976 12.5L1.39286 12.5L1.16399 12.5L1.10369 12.5H1.08823H1.08431H1.08333H1.08308H1.08302L1.08301 13L1.083 12.5L0.583008 12.5V13V23.5V24H1.08301H20.914H21.414V23.5V13V12.5L20.914 12.5Z" fill="#00539F"/>
</svg>
