<svg width="20" height="20" viewBox="0 0 20 20" fill="none" xmlns="http://www.w3.org/2000/svg">
<circle cx="10" cy="10" r="10" fill="white"/>
<path fill-rule="evenodd" clip-rule="evenodd" d="M10 20C15.5228 20 20 15.5228 20 10C20 4.47715 15.5228 0 10 0C4.47715 0 0 4.47715 0 10C0 15.5228 4.47715 20 10 20ZM14.539 4.37263L15.6264 5.46013C16.1245 5.9582 16.1244 6.76431 15.6264 7.26233L15.2008 7.68798L12.3114 4.79828L12.737 4.37263C13.2338 3.87581 14.0422 3.87578 14.539 4.37263ZM4.51591 12.83L4.00589 15.5844C3.98482 15.6982 4.0211 15.8151 4.10296 15.897C4.18492 15.979 4.30188 16.0152 4.41557 15.9941L7.16975 15.484L4.51591 12.83ZM4.89526 12.215L11.8142 5.29548L14.7037 8.18518L7.78472 15.1046L4.89526 12.215Z" fill="#333333"/>
</svg>
