<svg width="40" height="40" viewBox="0 0 40 40" fill="none" xmlns="http://www.w3.org/2000/svg">
<rect opacity="0.01" width="40" height="40" fill="white"/>
<circle cx="20" cy="20" r="12" fill="#666666"/>
<path fill-rule="evenodd" clip-rule="evenodd" d="M24.3 17.9592C24.56 17.6939 24.7 17.3469 24.7 16.9796C24.7 16.6122 24.56 16.2653 24.3 16L23.72 15.4082C23.46 15.1429 23.12 15 22.76 15C22.4 15 22.06 15.1429 21.8 15.4082L19.06 18.1633L15.36 21.9592C15.34 21.9796 15.32 22 15.32 22.0408V22.0612C15.32 22.0816 15.32 22.0816 15.3 22.102L15 24.6327C15 24.7143 15.02 24.7755 15.06 24.8367C15.1 24.8776 15.16 24.898 15.22 24.898H15.24L17.72 24.5918C17.74 24.5918 17.74 24.5918 17.76 24.5714H17.78C17.8 24.551 17.84 24.551 17.86 24.5306L23.48 18.7755L24.3 17.9592ZM22.12 15.7347C22.28 15.5714 22.52 15.4694 22.76 15.4694C23 15.4694 23.22 15.5714 23.4 15.7347L23.98 16.3265C24.14 16.4898 24.24 16.7347 24.24 16.9796C24.24 17.2245 24.14 17.449 23.98 17.6327L21.4 20.2245L19.56 18.3469L22.12 15.7347ZM17.7 24.0204L15.86 22.1429L19.24 18.6939L21.08 20.5714L17.7 24.0204ZM15.68 22.6327L17.18 24.1633L15.46 24.3673L15.68 22.6327Z" fill="white"/>
<path d="M24.3 17.9592L24.4411 18.1009L24.4428 18.0992L24.3 17.9592ZM24.3 16L24.1572 16.14L24.3 16ZM23.72 15.4082L23.8628 15.2682L23.72 15.4082ZM21.8 15.4082L21.9418 15.5492L21.9428 15.5481L21.8 15.4082ZM19.06 18.1633L18.9182 18.0222L18.9168 18.0237L19.06 18.1633ZM15.36 21.9592L15.5028 22.0992L15.5032 22.0988L15.36 21.9592ZM15.3 22.102L15.1572 21.9621L15.1094 22.0108L15.1014 22.0785L15.3 22.102ZM15 24.6327L14.8014 24.6091L14.8 24.6208V24.6327H15ZM15.06 24.8367L14.8926 24.9461L14.9034 24.9626L14.9172 24.9767L15.06 24.8367ZM15.24 24.898V25.098H15.2523L15.2645 25.0965L15.24 24.898ZM17.72 24.5918V24.3918H17.7077L17.6955 24.3933L17.72 24.5918ZM17.76 24.5714V24.3714H17.676L17.6172 24.4314L17.76 24.5714ZM17.78 24.5714V24.7714H17.864L17.9228 24.7114L17.78 24.5714ZM17.86 24.5306L18.0028 24.6706L18.0031 24.6703L17.86 24.5306ZM23.48 18.7755L23.3389 18.6338L23.3369 18.6358L23.48 18.7755ZM22.12 15.7347L21.9772 15.5947L22.12 15.7347ZM23.4 15.7347L23.5431 15.5945L23.5344 15.5866L23.4 15.7347ZM23.98 16.3265L24.1228 16.1865L23.98 16.3265ZM23.98 17.6327L24.1221 17.7741L24.1308 17.764L23.98 17.6327ZM21.4 20.2245L21.2572 20.3645L21.3989 20.5091L21.5417 20.3656L21.4 20.2245ZM19.56 18.3469L19.4172 18.207L19.28 18.3469L19.4172 18.4869L19.56 18.3469ZM17.7 24.0204L17.5572 24.1604L17.7 24.3062L17.8428 24.1604L17.7 24.0204ZM15.86 22.1429L15.7172 22.0029L15.58 22.1429L15.7172 22.2828L15.86 22.1429ZM19.24 18.6939L19.3828 18.5539L19.24 18.4081L19.0972 18.5539L19.24 18.6939ZM21.08 20.5714L21.2228 20.7114L21.36 20.5714L21.2228 20.4314L21.08 20.5714ZM15.68 22.6327L15.8228 22.4927L15.5336 22.1975L15.4816 22.6075L15.68 22.6327ZM17.18 24.1633L17.2036 24.3619L17.6077 24.3139L17.3228 24.0233L17.18 24.1633ZM15.46 24.3673L15.2616 24.3422L15.2294 24.5961L15.4836 24.566L15.46 24.3673ZM24.4428 18.0992C24.7397 17.7963 24.9 17.399 24.9 16.9796H24.5C24.5 17.2949 24.3803 17.5915 24.1572 17.8192L24.4428 18.0992ZM24.9 16.9796C24.9 16.5602 24.7397 16.1629 24.4428 15.86L24.1572 16.14C24.3803 16.3677 24.5 16.6643 24.5 16.9796H24.9ZM24.4428 15.86L23.8628 15.2682L23.5772 15.5481L24.1572 16.14L24.4428 15.86ZM23.8628 15.2682C23.5659 14.9651 23.1747 14.8 22.76 14.8V15.2C23.0653 15.2 23.3541 15.3206 23.5772 15.5481L23.8628 15.2682ZM22.76 14.8C22.3453 14.8 21.9541 14.9651 21.6572 15.2682L21.9428 15.5481C22.1659 15.3206 22.4547 15.2 22.76 15.2V14.8ZM21.6582 15.2671L18.9182 18.0222L19.2018 18.3043L21.9418 15.5492L21.6582 15.2671ZM18.9168 18.0237L15.2168 21.8196L15.5032 22.0988L19.2032 18.3029L18.9168 18.0237ZM15.2172 21.8192C15.1945 21.8423 15.12 21.9136 15.12 22.0408H15.52C15.52 22.0473 15.5192 22.0562 15.5163 22.0666C15.5134 22.0772 15.5093 22.0863 15.5049 22.0937C15.5008 22.1007 15.4972 22.1049 15.4966 22.1056C15.4965 22.1057 15.4971 22.105 15.5028 22.0992L15.2172 21.8192ZM15.12 22.0408V22.0612H15.52V22.0408H15.12ZM15.12 22.0612C15.12 22.07 15.1198 22.0626 15.1206 22.0538C15.122 22.0398 15.1261 22.0178 15.1379 21.9936C15.1481 21.9728 15.1597 21.9598 15.1616 21.9576C15.163 21.956 15.1637 21.9554 15.1572 21.9621L15.4428 22.242C15.4463 22.2385 15.4545 22.2303 15.4616 22.2222C15.4691 22.2137 15.4844 22.1956 15.4971 22.1696C15.5114 22.1404 15.5167 22.1133 15.5187 22.0928C15.5202 22.0777 15.52 22.0627 15.52 22.0612H15.12ZM15.1014 22.0785L14.8014 24.6091L15.1986 24.6562L15.4986 22.1256L15.1014 22.0785ZM14.8 24.6327C14.8 24.7541 14.8319 24.8532 14.8926 24.9461L15.2274 24.7273C15.2081 24.6978 15.2 24.6745 15.2 24.6327H14.8ZM14.9172 24.9767C15.0029 25.0642 15.1191 25.098 15.22 25.098V24.698C15.2122 24.698 15.2059 24.6966 15.2021 24.6951C15.1983 24.6937 15.1995 24.6933 15.2028 24.6967L14.9172 24.9767ZM15.22 25.098H15.24V24.698H15.22V25.098ZM15.2645 25.0965L17.7445 24.7903L17.6955 24.3933L15.2155 24.6995L15.2645 25.0965ZM17.72 24.7918C17.7212 24.7918 17.7366 24.7921 17.7522 24.7905C17.7734 24.7883 17.8012 24.7826 17.8309 24.7674C17.8571 24.7541 17.8751 24.7381 17.8834 24.7305C17.8913 24.7233 17.8993 24.715 17.9028 24.7114L17.6172 24.4314C17.6107 24.4381 17.6112 24.4374 17.6128 24.4359C17.6149 24.4341 17.6279 24.4219 17.6491 24.4111C17.6738 24.3985 17.6966 24.3941 17.7116 24.3926C17.7209 24.3916 17.7288 24.3918 17.72 24.3918V24.7918ZM17.76 24.7714H17.78V24.3714H17.76V24.7714ZM17.9228 24.7114C17.9048 24.7298 17.8877 24.7382 17.8823 24.7407C17.8778 24.7428 17.8749 24.7436 17.8844 24.7404C17.8899 24.7385 17.9078 24.7326 17.926 24.7242C17.9452 24.7153 17.9748 24.6992 18.0028 24.6706L17.7172 24.3906C17.7352 24.3723 17.7523 24.3638 17.7577 24.3613C17.7622 24.3592 17.7651 24.3584 17.7556 24.3617C17.7501 24.3635 17.7322 24.3694 17.714 24.3779C17.6948 24.3868 17.6652 24.4029 17.6372 24.4314L17.9228 24.7114ZM18.0031 24.6703L23.6231 18.9152L23.3369 18.6358L17.7169 24.3909L18.0031 24.6703ZM23.6211 18.9172L24.4411 18.1009L24.1589 17.8174L23.3389 18.6338L23.6211 18.9172ZM22.2628 15.8747C22.3848 15.7503 22.5731 15.6694 22.76 15.6694V15.2694C22.4669 15.2694 22.1752 15.3926 21.9772 15.5947L22.2628 15.8747ZM22.76 15.6694C22.9407 15.6694 23.1146 15.7458 23.2656 15.8828L23.5344 15.5866C23.3254 15.397 23.0593 15.2694 22.76 15.2694V15.6694ZM23.2572 15.8747L23.8372 16.4665L24.1228 16.1865L23.5428 15.5947L23.2572 15.8747ZM23.8372 16.4665C23.9592 16.5911 24.04 16.7852 24.04 16.9796H24.44C24.44 16.6842 24.3208 16.3885 24.1228 16.1865L23.8372 16.4665ZM24.04 16.9796C24.04 17.1677 23.9635 17.3471 23.8292 17.5013L24.1308 17.764C24.3165 17.5509 24.44 17.2812 24.44 16.9796H24.04ZM23.8383 17.4916L21.2583 20.0834L21.5417 20.3656L24.1217 17.7738L23.8383 17.4916ZM21.5428 20.0845L19.7028 18.207L19.4172 18.4869L21.2572 20.3645L21.5428 20.0845ZM19.7028 18.4869L22.2628 15.8747L21.9772 15.5947L19.4172 18.207L19.7028 18.4869ZM17.8428 23.8804L16.0028 22.0029L15.7172 22.2828L17.5572 24.1604L17.8428 23.8804ZM16.0028 22.2828L19.3828 18.8339L19.0972 18.5539L15.7172 22.0029L16.0028 22.2828ZM19.0972 18.8339L20.9372 20.7114L21.2228 20.4314L19.3828 18.5539L19.0972 18.8339ZM20.9372 20.4314L17.5572 23.8804L17.8428 24.1604L21.2228 20.7114L20.9372 20.4314ZM15.5372 22.7726L17.0372 24.3033L17.3228 24.0233L15.8228 22.4927L15.5372 22.7726ZM17.1564 23.9647L15.4364 24.1687L15.4836 24.566L17.2036 24.3619L17.1564 23.9647ZM15.6584 24.3925L15.8784 22.6578L15.4816 22.6075L15.2616 24.3422L15.6584 24.3925Z" fill="white"/>
</svg>
