<svg width="81" height="24" viewBox="0 0 81 24" fill="none" xmlns="http://www.w3.org/2000/svg">
<path fill-rule="evenodd" clip-rule="evenodd" d="M57.0009 0C58.7099 0 60.1898 0.209112 61.378 0.522493V4.15789C60.2107 2.96709 58.8351 2.21487 57.0217 2.21487C53.7076 2.21487 51.4985 4.534 51.4985 7.62656C51.4985 10.7188 53.7076 13.038 57.0217 13.038C58.8351 13.038 60.2107 12.286 61.378 11.095V14.7306C60.1898 15.044 58.7099 15.2737 57.0009 15.2737C51.2693 15.2737 47.1213 12.4112 47.1213 7.62656C47.1213 2.84163 51.2693 0 57.0009 0ZM40.7225 5.93419C43.578 6.33093 45.954 7.33409 45.954 10.4473C45.954 14.1039 42.4941 15.2737 38.7631 15.2531C36.1579 15.2319 33.9485 14.9813 32.3226 14.3336V11.0531C34.6363 12.5576 37.0123 13.038 38.7631 13.038C40.5764 13.038 42.2441 12.5994 42.2441 11.2204C42.2441 9.84143 40.7016 9.50685 37.5335 9.02646C34.8029 8.60853 32.3226 7.43836 32.3017 4.74311C32.2808 1.10743 35.7201 0 39.0131 0C41.1394 0 43.2028 0.250648 45.0993 0.877696V4.40882C43.5154 3.00892 41.1602 2.21487 38.8465 2.21487C37.2832 2.21487 35.8033 2.71645 35.8033 3.88633C35.8033 5.34896 37.9918 5.55807 40.7225 5.93419ZM25.0068 12.7248C26.695 12.7248 29.5088 12.3278 30.6135 11.3455V14.9394H18.6289C19.2124 14.2499 19.3167 13.7901 19.3167 12.3902V2.86247C19.3167 1.46257 19.2124 1.00281 18.6289 0.313314H29.9883V3.90717C28.8836 2.9252 26.0698 2.52818 24.3816 2.52818H23.0475V6.41451H24.0273C24.986 6.41451 26.4659 6.37268 27.4454 6.01748V8.90093C26.4659 8.54573 24.986 8.5039 24.0273 8.5039H23.0475V12.7248H25.0068ZM0.662109 0.313314H17.1073V3.90717C15.94 2.9252 13.4597 2.52818 10.8128 2.52818V12.3278C10.8128 13.7901 10.9377 14.1872 11.5006 14.9394H6.26881C6.83173 14.1872 6.9566 13.7901 6.9566 12.3278V2.52818C4.3097 2.52818 1.8294 2.9252 0.662109 3.90717V0.313314Z" fill="#CC3232"/>
<path fill-rule="evenodd" clip-rule="evenodd" d="M71.7042 13.0378C68.7236 13.0378 66.7853 10.5723 66.7853 7.62613C66.7853 4.65932 68.7236 2.21444 71.7042 2.21444C74.6846 2.21444 76.6231 4.65932 76.6231 7.62613C76.6231 10.5723 74.6846 13.0378 71.7042 13.0378ZM71.7042 0C65.7846 0 62.4082 3.44748 62.4082 7.62628C62.4082 11.7844 65.7846 15.2528 71.7042 15.2528C77.6235 15.2528 81.0002 11.7844 81.0002 7.62628C81.0002 3.44748 77.6235 0 71.7042 0Z" fill="#CC3232"/>
<path fill-rule="evenodd" clip-rule="evenodd" d="M70.8893 18.9131H80.82C80.8311 18.9131 80.8403 18.9154 80.8471 18.9194L80.8494 18.9205C80.8517 18.922 80.854 18.9237 80.856 18.9257C80.8754 18.9446 80.8771 18.983 80.8474 19.0108C80.8391 19.0182 80.8317 19.0228 80.8231 19.0271L80.8054 19.0354C79.6516 19.5625 78.1065 21.1698 78.1065 21.1698C76.9512 22.27 76.0851 22.9638 74.238 22.9638H64.7697C64.7423 22.9638 64.728 22.9378 64.7266 22.9106C64.7266 22.91 64.7266 22.9114 64.7266 22.9106C64.7266 22.8937 64.7343 22.8753 64.7466 22.8653C64.7543 22.8587 64.7657 22.851 64.7766 22.8441C65.8156 22.2623 67.3675 20.6493 67.3675 20.6493C68.003 19.8968 69.2726 18.9131 70.8893 18.9131Z" fill="#00539F"/>
<path fill-rule="evenodd" clip-rule="evenodd" d="M54.7077 18.9131H64.6383C64.6495 18.9131 64.6586 18.9154 64.6655 18.9194L64.6678 18.9205C64.6701 18.922 64.6724 18.9237 64.6744 18.9257C64.6938 18.9446 64.6955 18.983 64.6658 19.0108C64.6575 19.0182 64.6501 19.0228 64.6415 19.0271L64.6238 19.0354C63.4699 19.5625 61.9249 21.1698 61.9249 21.1698C60.7696 22.27 59.9038 22.9638 58.0564 22.9638H48.5881C48.5606 22.9638 48.5464 22.9378 48.5449 22.9106C48.5449 22.91 48.5449 22.9114 48.5449 22.9106C48.5449 22.8937 48.5526 22.8753 48.5649 22.8653C48.5726 22.8587 48.5841 22.851 48.5949 22.8441C49.6339 22.2623 51.1858 20.6493 51.1858 20.6493C51.8213 19.8968 53.0909 18.9131 54.7077 18.9131Z" fill="#00539F"/>
<path fill-rule="evenodd" clip-rule="evenodd" d="M38.526 18.9131H48.4567C48.4679 18.9131 48.477 18.9154 48.4839 18.9194L48.4861 18.9205C48.4884 18.922 48.4907 18.9237 48.4927 18.9257C48.5121 18.9446 48.5139 18.983 48.4841 19.0108C48.4759 19.0182 48.4684 19.0228 48.4599 19.0271L48.4421 19.0354C47.2883 19.5625 45.7432 21.1698 45.7432 21.1698C44.5879 22.27 43.7221 22.9638 41.8747 22.9638H32.4064C32.379 22.9638 32.3647 22.9378 32.3633 22.9106C32.3633 22.91 32.3633 22.9114 32.3633 22.9106C32.3633 22.8937 32.371 22.8753 32.3833 22.8653C32.391 22.8587 32.4027 22.851 32.4133 22.8441C33.4523 22.2623 35.0045 20.6493 35.0045 20.6493C35.6397 19.8968 36.9093 18.9131 38.526 18.9131Z" fill="#00539F"/>
<path fill-rule="evenodd" clip-rule="evenodd" d="M22.3444 18.9131H32.2751C32.2862 18.9131 32.2954 18.9154 32.3022 18.9194L32.3045 18.9205C32.3068 18.922 32.3091 18.9237 32.3111 18.9257C32.3305 18.9446 32.3322 18.983 32.3025 19.0108C32.2942 19.0182 32.2868 19.0228 32.2782 19.0271L32.2605 19.0354C31.1066 19.5625 29.5616 21.1698 29.5616 21.1698C28.4063 22.27 27.5402 22.9638 25.6931 22.9638H16.2248C16.1974 22.9638 16.1831 22.9378 16.1816 22.9106C16.1816 22.91 16.1816 22.9114 16.1816 22.9106C16.1816 22.8937 16.1894 22.8753 16.2016 22.8653C16.2094 22.8587 16.2208 22.851 16.2316 22.8441C17.2706 22.2623 18.8225 20.6493 18.8225 20.6493C19.458 19.8968 20.7276 18.9131 22.3444 18.9131Z" fill="#00539F"/>
<path fill-rule="evenodd" clip-rule="evenodd" d="M6.16277 18.9131H16.0934C16.1046 18.9131 16.1137 18.9154 16.1206 18.9194L16.1229 18.9205C16.1251 18.922 16.1274 18.9237 16.1294 18.9257C16.1489 18.9446 16.1506 18.983 16.1209 19.0108C16.1126 19.0182 16.1051 19.0228 16.0966 19.0271L16.0789 19.0354C14.925 19.5625 13.3799 21.1698 13.3799 21.1698C12.2247 22.27 11.3586 22.9638 9.51147 22.9638H0.0431482C0.0157162 22.9638 0.00142875 22.9378 0 22.9106C0 22.91 0 22.9114 0 22.9106C0 22.8937 0.00771524 22.8753 0.0200025 22.8653C0.0277177 22.8587 0.0391477 22.851 0.0500062 22.8441C1.08899 22.2623 2.6409 20.6493 2.6409 20.6493C3.27641 19.8968 4.54599 18.9131 6.16277 18.9131Z" fill="#00539F"/>
</svg>
